<svg width="96" height="29" xmlns="http://www.w3.org/2000/svg">

 <g>
  <title>background</title>
  <rect fill="none" id="canvas_background" height="31" width="98" y="-1" x="-1"/>
 </g>
 <g>
  <title>Layer 1</title>
  <path fill="#E8E8E8" d="m15.61111,19.937c4.5,0 8.156,-4.473 8.156,-9.969c0,-5.496 -3.656,-9.968 -8.156,-9.968c-1.1369,0.02174 -2.2537,0.3034 -3.2649,0.8234c-1.0112,0.51999 -1.89,1.26454 -2.5691,2.1766c-1.5394,1.99573 -2.3578,4.45381 -2.322,6.974c0,5.491 3.656,9.963 8.156,9.963zm0,-18.124c3.5,0 6.344,3.659 6.344,8.156c0,4.497 -2.846,8.156 -6.344,8.156c-3.498,0 -6.344,-3.66 -6.345,-8.156c-0.001,-4.496 2.845,-8.156 6.345,-8.156zm6.344,16.312c-0.2404,0 -0.471,0.0955 -0.641,0.2655c-0.17,0.17 -0.2655,0.4006 -0.2655,0.641c0,0.2404 0.0955,0.471 0.2655,0.641c0.17,0.17 0.4006,0.2655 0.641,0.2655c1.682,0.0019 3.2946,0.6708 4.4839,1.8602c1.1893,1.1893 1.8582,2.8018 1.8601,4.4838c-0.0005,0.2401 -0.0962,0.4703 -0.266,0.6401c-0.1698,0.1697 -0.3999,0.2654 -0.64,0.2659l-23.562,0c-0.2402,-0.0005 -0.4703,-0.0962 -0.64,-0.2659c-0.1698,-0.1698 -0.2655,-0.4 -0.266,-0.6401c0.0021,-1.6819 0.6712,-3.2943 1.8604,-4.4835c1.1893,-1.1893 2.8017,-1.8584 4.4836,-1.8605c0.2402,0 0.4707,-0.0955 0.6406,-0.2654c0.1699,-0.1699 0.2654,-0.4003 0.2654,-0.6406c0,-0.2403 -0.0955,-0.4707 -0.2654,-0.6406c-0.1699,-0.1699 -0.4004,-0.2654 -0.6406,-0.2654c-2.1626,0.0019 -4.236,0.8615 -5.7654,2.3904c-1.5295,1.5289 -2.39,3.6021 -2.3926,5.7646c0.0008,0.7209 0.2875,1.412 0.7972,1.9217c0.5098,0.5098 1.2009,0.7965 1.9218,0.7973l23.563,0c0.7207,-0.0011 1.4116,-0.2879 1.9211,-0.7976c0.5095,-0.5097 0.7961,-1.2007 0.7969,-1.9214c-0.0026,-2.1623 -0.8628,-4.2353 -2.3917,-5.7642c-1.529,-1.529 -3.602,-2.3892 -5.7643,-2.3918z" id="Forma 1_2"/>
  <g id="Group 35">
   <path fill="#E8E8E8" d="m87.64544,29c-0.648,-0.0262 -1.259,-0.3052 -1.704,-0.7773c-0.444,-0.4721 -0.686,-1.0995 -0.673,-1.7477c0.014,-0.6481 0.28,-1.2653 0.743,-1.7191c0.463,-0.4537 1.086,-0.7079 1.734,-0.7079c0.648,0 1.271,0.2542 1.734,0.7079c0.463,0.4538 0.729,1.071 0.742,1.7191c0.014,0.6482 -0.228,1.2756 -0.672,1.7477c-0.445,0.4721 -1.056,0.7511 -1.704,0.7773l-0.2,0zm-19.448,-2.68c0,-0.53 0.157,-1.0482 0.452,-1.4889c0.294,-0.4407 0.713,-0.7842 1.202,-0.9871c0.49,-0.2028 1.029,-0.2559 1.549,-0.1525c0.52,0.1034 0.997,0.3587 1.372,0.7335c0.375,0.3748 0.63,0.8523 0.734,1.3722c0.103,0.5198 0.05,1.0587 -0.153,1.5484c-0.203,0.4897 -0.546,0.9083 -0.987,1.2027c-0.441,0.2945 -0.959,0.4517 -1.489,0.4517c-0.352,0.0003 -0.701,-0.0689 -1.026,-0.2034c-0.326,-0.1346 -0.621,-0.332 -0.87,-0.5808c-0.249,-0.2489 -0.447,-0.5445 -0.582,-0.8697c-0.135,-0.3253 -0.204,-0.674 -0.204,-1.0261l0.002,0zm3.8,-5.634c-0.259,0.0008 -0.512,-0.0836 -0.719,-0.2403c-0.207,-0.1566 -0.356,-0.3768 -0.426,-0.6267l-4.833,-17.45499l-3.393,0c-0.313,0 -0.614,-0.12454 -0.836,-0.3462c-0.221,-0.22167 -0.346,-0.52232 -0.346,-0.8358c0,-0.31349 0.125,-0.61414 0.346,-0.83581c0.222,-0.22166 0.523,-0.34619 0.836,-0.34619l4.281,0c0.26,-0.00082 0.512,0.08371 0.719,0.24056c0.206,0.15685 0.356,0.37731 0.425,0.62744l4.833,17.45499l13.178,0l4.383,-10.04799l-14.6,0c-0.158,0.0046 -0.316,-0.02259 -0.463,-0.07994c-0.148,-0.05736 -0.282,-0.14373 -0.396,-0.25399c-0.113,-0.11026 -0.203,-0.24217 -0.265,-0.38793c-0.062,-0.14576 -0.093,-0.3024 -0.093,-0.46065c0,-0.15824 0.031,-0.31488 0.093,-0.46064c0.062,-0.14576 0.152,-0.27767 0.265,-0.38793c0.114,-0.11026 0.248,-0.19663 0.396,-0.25399c0.147,-0.05735 0.305,-0.08453 0.463,-0.07993l16.413,0c0.196,-0.00005 0.388,0.04865 0.56,0.14171c0.173,0.09306 0.319,0.22754 0.426,0.39129c0.108,0.16428 0.173,0.35268 0.191,0.54844c0.017,0.19576 -0.014,0.39279 -0.091,0.57355l-5.405,12.412c-0.092,0.2106 -0.244,0.3898 -0.437,0.5157c-0.192,0.1259 -0.417,0.1931 -0.647,0.1933l-14.858,0z" id="Forma 1_3"/>
  </g>
 </g>
</svg>